<?xml version="1.0" encoding="UTF-8"?>
<svg xmlns="http://www.w3.org/2000/svg" xmlns:xlink="http://www.w3.org/1999/xlink" width="16pt" height="16pt" viewBox="0 0 16 16" version="1.1">
<g id="surface1">
<path style=" stroke:none;fill-rule:nonzero;fill:rgb(100%,100%,100%);fill-opacity:1;" d="M 5.703125 12.742188 C 6.132812 12.765625 6.566406 12.757812 6.996094 12.71875 C 7.75 12.652344 8.503906 12.546875 9.246094 12.398438 C 9.777344 12.285156 10.296875 12.144531 10.8125 11.976562 C 11.382812 11.769531 11.695312 11.589844 11.835938 11.335938 C 11.859375 11.183594 11.765625 11.035156 11.613281 10.992188 C 10.941406 10.707031 10.160156 10.757812 8.613281 10.726562 C 6.898438 10.667969 6.328125 10.382812 6.027344 10.148438 C 5.734375 9.914062 5.882812 9.265625 7.128906 8.695312 C 8.140625 8.347656 9.175781 8.058594 10.222656 7.832031 C 9.390625 7.421875 7.84375 6.699219 7.527344 6.546875 C 7.246094 6.410156 6.800781 6.203125 6.703125 5.953125 C 6.59375 5.714844 6.964844 5.507812 7.171875 5.449219 C 7.96875 5.242188 8.792969 5.132812 9.621094 5.128906 C 9.789062 5.136719 9.957031 5.125 10.121094 5.09375 C 10.394531 5.085938 10.652344 4.949219 10.8125 4.722656 C 10.972656 4.5 11.019531 4.214844 10.941406 3.949219 C 10.710938 3.269531 9.996094 2.875 9.296875 3.046875 C 8.609375 3.167969 6.953125 3.648438 6.953125 3.648438 C 9 3.632812 9.34375 3.667969 9.496094 3.878906 C 9.585938 4.007812 9.457031 4.179688 8.910156 4.269531 C 8.316406 4.367188 7.078125 4.484375 7.078125 4.484375 C 5.894531 4.554688 5.058594 4.558594 4.808594 5.089844 C 4.648438 5.433594 4.984375 5.738281 5.132812 5.933594 C 5.738281 6.519531 6.457031 6.976562 7.246094 7.28125 C 7.464844 7.386719 8.105469 7.582031 8.105469 7.582031 C 6.660156 7.4375 5.214844 7.847656 4.054688 8.726562 C 3.152344 9.5625 3.550781 10.558594 5.402344 11.171875 C 6.441406 11.582031 7.566406 11.714844 8.671875 11.558594 C 9.632812 11.507812 9.78125 11.535156 9.792969 11.613281 C 9.804688 11.726562 8.726562 12 8.429688 12.085938 C 7.679688 12.304688 5.714844 12.742188 5.703125 12.742188 Z M 5.703125 12.742188 "/>
</g>
</svg>
